<?xml version="1.0" encoding="UTF-8"?><svg id="Layer_1" xmlns="http://www.w3.org/2000/svg" xmlns:xlink="http://www.w3.org/1999/xlink" viewBox="0 0 250 250"><defs><style>.cls-1{clip-path:url(#clippath);}.cls-2{fill:none;}.cls-2,.cls-3,.cls-4{stroke-width:0px;}.cls-3{fill:#fecb00;}.cls-4{fill:#fff;}</style><clipPath id="clippath"><rect class="cls-2" x="2.45" y="2.45" width="245.1" height="245.1"/></clipPath></defs><g class="cls-1"><path class="cls-3" d="M125,247.55c67.68,0,122.55-54.87,122.55-122.55S192.68,2.45,125,2.45,2.45,57.32,2.45,125s54.87,122.55,122.55,122.55"/><path class="cls-4" d="M217.33,108.68c-.87,1.57-5.01,3.34-7.66,4.03-.08,0-.15.05-.23.08-.23.08-22.3,7.4-55.06,15.24l1.46-1.98c.77-1.05.82-2.49.1-3.6-.72-1.1-2.03-1.64-3.31-1.39l-28.36,5.93c-1.72.36-2.8,2.03-2.44,3.75.36,1.72,2.03,2.8,3.75,2.44l20.25-4.24-21.61,29.39-8.94.85,2.6-26.9c.18-1.75-1.1-3.29-2.85-3.47-1.75-.18-3.29,1.1-3.47,2.85l-.54,5.47c-15.9,2.9-31.5,5.22-46.35,6.89-3.16.36-6.32-.64-8.71-2.75l-20.3-17.93,7.09-2.06,15,9.89c2.52,1.65,5.63,2.18,8.53,1.44l124.56-31.94s10.23-2.52,15.03,2.93c.56.64,1.36,1.03,2.21,1.05,3.47.18,8.63,1.57,9.28,3.67.02.1.05.15-.08.33h.05ZM102.36,102.59l6.3-2.26,20.32,9.66-18.65,4.78-7.99-12.18h.02ZM223.45,106.53c-1.85-6.17-10.33-7.71-13.72-8.07-7.53-7.14-19.89-4.06-20.43-3.93l-50.72,13-28.39-13.49c-.77-.36-1.64-.41-2.41-.13l-11.33,4.06c-.93.33-1.62,1.05-1.93,1.98-.31.92-.18,1.93.36,2.75l9.02,13.72-39.1,10.02c-1.18.31-2.44.1-3.47-.59l-16.24-10.71c-.77-.51-1.75-.67-2.62-.38l-14,4.06c-1.1.33-1.95,1.23-2.21,2.34-.26,1.13.13,2.31,1,3.06l24.61,21.76c3.24,2.85,7.4,4.42,11.66,4.42.64,0,1.31-.02,1.95-.1,14.44-1.62,29.57-3.85,45.01-6.63l-1.8,18.7c-.1.95.23,1.88.9,2.54.59.59,1.41.93,2.24.93h.31l14.18-1.34c.9-.08,1.72-.54,2.26-1.29l20.09-27.34c35.79-8.22,60.89-16.44,62.74-17.03,1.72-.46,8.99-2.6,11.48-7.01.95-1.67,1.16-3.49.62-5.29h-.08Z"/></g></svg>