<?xml version="1.0" encoding="UTF-8"?><svg id="Layer_1" xmlns="http://www.w3.org/2000/svg" xmlns:xlink="http://www.w3.org/1999/xlink" viewBox="0 0 250 250"><defs><style>.cls-1{clip-path:url(#clippath);}.cls-2{fill:none;}.cls-2,.cls-3,.cls-4{stroke-width:0px;}.cls-3{fill:#009fe4;}.cls-4{fill:#fff;}</style><clipPath id="clippath"><rect class="cls-2" x="2.49" y="2.49" width="245.02" height="245.02"/></clipPath></defs><g class="cls-1"><path class="cls-3" d="M125,247.51c67.66,0,122.51-54.85,122.51-122.51S192.66,2.49,125,2.49,2.49,57.34,2.49,125s54.85,122.51,122.51,122.51"/><path class="cls-4" d="M193.4,181.66H56.6c-2.14,0-3.87-1.73-3.87-3.87v-12.4c0-2.14,1.73-3.87,3.87-3.87h5.46v-49.55l-4.08-2.04c-1.31-.65-2.14-1.99-2.14-3.46v-8.61c-1.34-.27-2.47-1.23-2.91-2.57l-3.11-9.3c-.65-1.96.34-4.08,2.26-4.83l71.51-27.91c.9-.35,1.91-.35,2.81,0l71.51,27.91c1.92.75,2.92,2.87,2.26,4.83l-3.11,9.3c-.45,1.33-1.57,2.3-2.91,2.57v8.61c0,1.47-.83,2.81-2.14,3.46l-4.08,2.04v49.55h5.46c2.14,0,3.87,1.73,3.87,3.87v12.4c0,2.14-1.73,3.87-3.87,3.87ZM60.47,173.92h129.05v-4.67H60.47v4.67ZM172.39,161.51h7.81v-51.94c0-1.47.83-2.81,2.14-3.46l4.08-2.04v-6.14H63.58v6.14l4.08,2.04c1.31.65,2.14,1.99,2.14,3.46v51.94h7.81v-42.64c0-7.26,5.92-13.17,13.2-13.17s13.2,5.91,13.2,13.17v42.64h7.81v-42.64c0-7.26,5.92-13.17,13.2-13.17s13.2,5.91,13.2,13.17v42.64h7.81v-42.64c0-7.26,5.92-13.17,13.19-13.17s13.2,5.91,13.2,13.17v42.64ZM153.74,161.51h10.92v-42.64c0-3-2.45-5.43-5.46-5.43s-5.46,2.44-5.46,5.43v42.64ZM119.54,161.51h10.91v-42.64c0-3-2.45-5.43-5.46-5.43s-5.46,2.44-5.46,5.43v42.64ZM85.34,161.51h10.91v-42.64c0-3-2.45-5.43-5.46-5.43s-5.46,2.44-5.46,5.43v42.64ZM59.39,90.2h131.22l1.06-3.17-66.67-26.02-66.67,26.02,1.06,3.17Z"/></g></svg>