<?xml version="1.0" encoding="UTF-8"?><svg id="Layer_1" xmlns="http://www.w3.org/2000/svg" xmlns:xlink="http://www.w3.org/1999/xlink" viewBox="0 0 250 250"><defs><style>.cls-1{fill:#7853f9;}.cls-1,.cls-2,.cls-3{stroke-width:0px;}.cls-4{clip-path:url(#clippath);}.cls-2{fill:none;}.cls-3{fill:#fff;}</style><clipPath id="clippath"><rect class="cls-2" x="2.38" y="2.39" width="245.23" height="245.23"/></clipPath></defs><g class="cls-4"><path class="cls-1" d="M125,247.62c67.72,0,122.61-54.9,122.61-122.61S192.72,2.39,125,2.39,2.39,57.28,2.39,125s54.9,122.61,122.61,122.61"/><path class="cls-3" d="M78.8,125.03c-5.76,0-10.49-4.49-10.89-10.15h21.78c-.4,5.66-5.13,10.15-10.89,10.15M77.74,133c.37.02.72.04,1.06.04,6.11,0,11.87-3.02,15.4-7.97,2.7,3.81,6.73,6.48,11.34,7.5v46.69h-27.8v-46.25ZM92.9,70.8l-2.55,36.03h-21.43l8.05-36.03h15.92ZM98.62,106.81l2.55-36.01h19.47v36.01h-22.02ZM120.5,114.89c-.4,5.66-5.13,10.14-10.88,10.14s-10.5-4.48-10.9-10.14h21.78ZM113.52,132.59c4.67-.99,8.75-3.67,11.48-7.53,3.52,4.95,9.27,7.97,15.39,7.97s11.89-3.02,15.41-7.98c3.53,4.96,9.29,7.98,15.4,7.98.34,0,.69-.01,1.06-.04v46.25h-58.74v-46.65ZM159.83,106.83l-2.83-36.04h16.03l8.06,36.04h-21.26ZM151.28,114.93c-.42,5.64-5.14,10.1-10.89,10.1s-10.46-4.46-10.88-10.1h21.77ZM128.89,106.78v-35.96h19.95l2.81,35.96h-22.76ZM160.31,114.89h21.78c-.4,5.66-5.13,10.15-10.89,10.15s-10.49-4.49-10.89-10.15M190.12,114.12v-3.64l-10.62-47.72h-108.99l-10.57,47.26-.05,4.09c0,6.96,3.76,13.25,9.87,16.59v48.54h-4.88c-2.2,0-4,1.79-4,4s1.79,4,4,4h120.26c2.2,0,4-1.79,4-4s-1.79-4-4-4h-4.89v-48.54c6.1-3.33,9.87-9.63,9.87-16.59"/></g></svg>