<?xml version="1.0" encoding="UTF-8"?><svg id="Layer_1" xmlns="http://www.w3.org/2000/svg" viewBox="0 0 250 250"><defs><style>.cls-1{fill:#009fe4;}.cls-1,.cls-2{stroke-width:0px;}.cls-2{fill:#fff;}</style></defs><path class="cls-1" d="M125,247.55c67.68,0,122.55-54.87,122.55-122.55S192.68,2.45,125,2.45,2.45,57.32,2.45,125s54.87,122.55,122.55,122.55"/><path class="cls-2" d="M120.79,111.72c11.73,0,23.48,0,35.23,0-6.47-6.1-11.88-11.17-16.99-15.93-1.73-1.61-3.74-2.39-6.14-2.39h-.09c-3.18.03-6.41.02-9.53.01-.82,0-1.65,0-2.47,0v18.32ZM127.93,117.28h-9.29c-.19,0-.38-.01-.62-.04l-2.79-.21v-29.19h3.93c1.37,0,2.74,0,4.11,0,3.11,0,6.32.01,9.48-.01,3.84-.03,7.27,1.27,10.06,3.87,5.22,4.86,10.75,10.04,17.4,16.32.88.83,1.66,1.77,2.31,2.77,1.1,1.71.8,3.12.53,3.8-.34.85-1.15,1.95-3.07,2.4-.73.17-1.44.26-2.1.26-9.98,0-19.96.01-29.94.01M76.57,111.69c.18.02.39.03.66.03,7.56,0,15.11,0,22.67,0h1.13v-18.32c-3.13,0-6.25,0-9.37.02-1.22,0-2.08.43-2.79,1.37-1.68,2.22-3.2,4.25-4.63,6.21-.68.93-1.38,1.86-2.07,2.79-1.8,2.41-3.66,4.9-5.31,7.42-.12.18-.21.33-.28.47M87.54,117.29c-3.44,0-6.87,0-10.31,0-3.65,0-5.22-1.51-5.91-2.78-.67-1.25-1.07-3.36.89-6.33,1.75-2.65,3.66-5.21,5.5-7.69.68-.92,1.37-1.83,2.04-2.75,1.45-1.98,2.99-4.04,4.69-6.28,1.76-2.33,4.25-3.56,7.2-3.57,3.34-.01,6.68-.02,10.02-.02h1.58c.22,0,.43.02.68.05l.16.02,2.51.24v28.95l-2.97.15c-.31.02-.6.03-.88.03h-2.83c-4.12,0-8.24,0-12.36,0M75.74,157.33h.01c4.29,0,7.78-3.44,7.79-7.67,0-2.1-.81-4.07-2.28-5.55-1.46-1.47-3.41-2.28-5.49-2.28h0c-4.2,0-7.75,3.55-7.75,7.75,0,4.27,3.46,7.75,7.73,7.75ZM75.75,162.89h-.02c-7.33-.01-13.29-5.98-13.28-13.31,0-7.34,5.98-13.31,13.31-13.31h.01c3.56,0,6.9,1.39,9.42,3.92,2.53,2.53,3.91,5.9,3.91,9.49-.02,7.29-6,13.22-13.35,13.22M181.16,157.33h.02c2.11,0,4.09-.81,5.56-2.29,1.46-1.46,2.27-3.39,2.27-5.45,0-4.18-3.56-7.74-7.78-7.76h-.05c-2.02,0-3.93.79-5.39,2.24-1.48,1.47-2.3,3.42-2.31,5.49,0,2.09.79,4.04,2.24,5.51,1.44,1.46,3.37,2.26,5.44,2.27M181.18,162.89h-.03c-3.55,0-6.88-1.4-9.38-3.92-2.49-2.51-3.85-5.86-3.84-9.43,0-3.56,1.41-6.9,3.95-9.42,2.53-2.51,5.88-3.88,9.38-3.85,7.34.05,13.31,6.02,13.31,13.32,0,3.55-1.39,6.88-3.9,9.39-2.53,2.52-5.9,3.91-9.49,3.91M55.11,153.81c1.31,0,2.89.53,3.86,2.69,3.21,7.13,8.4,10.84,15.86,11.32,7.71.5,14.69-3.93,17.76-11.29.75-1.79,2.13-2.71,4.1-2.71h.01c22.45.02,43.25.02,63.61,0h0c1.99,0,3.39.94,4.16,2.8,3.3,7.99,11.77,12.57,20.15,10.89,6.6-1.33,11.08-5.27,13.73-12.04.39-1.01,1.12-1.99,2-2.69,1.9-1.52,4.28-3.62,5.78-6.32.25-.44.41-1.06.42-1.56.03-2.4.02-4.85.01-7.21-.01-3.45-.02-7.02.07-10.56.05-1.83-.65-2.57-1.71-3.13-2.35-1.23-4.48-2.15-6.52-2.81-6.38-2.09-13.14-3.47-19.68-4.8-1.08-.22-2.15-.44-3.23-.66-1.43-.3-2.57-.83-3.38-1.59-3.74-3.49-7.46-7.01-11.18-10.53-2.54-2.4-5.08-4.81-7.63-7.2-3.98-3.74-7.87-7.39-11.87-11.01-2.57-2.32-5.3-3.36-8.58-3.25-5,.15-10.06.12-14.95.09-1.15,0-2.3-.02-3.45-.02v.04h-2.78c-2.25,0-4.51,0-6.77,0-5.56,0-11.31-.02-16.95.02-2.17.01-3.74.88-4.94,2.72l-.25.39c-.58.9-1.19,1.83-1.88,2.74-2.37,3.11-4.75,6.21-7.13,9.31-2.18,2.84-4.35,5.67-6.53,8.51-.24.32-.49.72-.75,1.15-.69,1.12-1.46,2.39-2.81,3.28-1.35.89-2.84,1.12-4.16,1.31-.49.07-.96.14-1.35.24-4.2,1.05-7.95,2.08-11.33,3.92-2.43,1.33-3.45,3.07-3.42,5.83.05,4.01.04,8.08.04,12.02,0,3.64,0,7.4.03,11.09,0,.58.22,1.33.56,1.94,1.07,1.93,2.66,3.55,4.71,5.4,1.58,1.42,2.91,1.94,4.44,1.72.47-.06.87-.05,1.16-.04.07,0,.15,0,.22,0,.18-.02.37-.03.56-.03M76.03,173.41c-.52,0-1.04-.02-1.56-.05-9.21-.6-16.21-5.43-20.28-13.97-.03,0-.07,0-.1,0-.07,0-.14,0-.22,0-3.14.44-6.06-.57-8.87-3.1-2.13-1.92-4.32-4.08-5.85-6.83-.79-1.42-1.25-3.09-1.26-4.59-.04-3.72-.03-7.5-.03-11.15,0-3.92,0-7.97-.04-11.95-.06-4.83,2.07-8.45,6.31-10.77,3.96-2.16,8.07-3.29,12.64-4.44.65-.16,1.27-.25,1.87-.35.75-.11,1.59-.24,1.92-.46.31-.21.76-.95,1.13-1.54.31-.51.66-1.08,1.08-1.63,2.17-2.84,4.35-5.68,6.53-8.52,2.38-3.1,4.76-6.2,7.13-9.3.56-.74,1.09-1.54,1.64-2.39l.26-.4c2.22-3.41,5.52-5.22,9.56-5.25,5.67-.04,11.43-.03,16.99-.02,1.35,0,2.7,0,4.05,0l2.71-.05c2.09,0,4.18.01,6.27.03,4.84.03,9.85.06,14.74-.09,4.74-.13,8.83,1.38,12.48,4.68,4.04,3.65,7.96,7.32,11.95,11.08,2.55,2.4,5.1,4.81,7.64,7.21,3.71,3.51,7.42,7.02,11.15,10.5-.01-.01.18.1.72.21,1.07.22,2.14.44,3.22.66,6.69,1.36,13.61,2.77,20.3,4.96,2.32.76,4.73,1.8,7.36,3.17,3.18,1.66,4.8,4.5,4.7,8.21-.1,3.44-.08,6.97-.07,10.38,0,2.39.02,4.86-.01,7.29-.02,1.42-.42,2.95-1.12,4.2-1.97,3.55-4.86,6.12-7.17,7.96-.14.11-.26.29-.29.37-3.34,8.56-9.33,13.76-17.81,15.47-10.75,2.16-21.61-3.53-26.11-13.58-19.94.02-40.3.02-62.2,0-3.94,8.68-12.14,14.04-21.37,14.04"/></svg>