<?xml version="1.0" encoding="UTF-8"?><svg id="Layer_1" xmlns="http://www.w3.org/2000/svg" xmlns:xlink="http://www.w3.org/1999/xlink" viewBox="0 0 250 250"><defs><style>.cls-1{clip-path:url(#clippath);}.cls-2{fill:none;}.cls-2,.cls-3,.cls-4{stroke-width:0px;}.cls-3{fill:#fecb00;}.cls-4{fill:#fff;}</style><clipPath id="clippath"><rect class="cls-2" x="2.45" y="2.39" width="245.1" height="245.1"/></clipPath></defs><g class="cls-1"><path class="cls-3" d="M125,247.49c67.68,0,122.55-54.87,122.55-122.55S192.68,2.39,125,2.39,2.45,57.25,2.45,124.94s54.87,122.55,122.55,122.55"/><path class="cls-4" d="M85.77,137.07c-1.12.33-2.2.79-3.21,1.38-1.7,1.34-3.32,2.79-4.82,4.35-1.44,1.24-1.6,3.42-.36,4.86.1.12.21.23.33.33,1.66,1.62,4.22,1.85,6.14.54,2.12-1.47,4.03-3.22,5.69-5.21,2.12-2.71-.05-6.04-3.77-6.27v.02ZM125.54,172.1c.04-1.77-1.06-3.36-2.73-3.95-1.66-.8-3.62-.63-5.12.44-1.84,1.38-3.56,2.89-5.16,4.53-1.29,1.26-1.42,3.3-.3,4.72,1,1.49,2.74,2.31,4.52,2.13,3.07-.13,8.74-5.23,8.8-7.89v.02ZM104.12,149.74c-.1-2.41-.81-3.83-2.78-4.57-1.89-.75-4.04-.32-5.5,1.09-2.57,2.21-5.05,4.5-7.55,6.76-2.23,2.01-2.38,4.6-.42,6.28,2.17,1.74,5.31,1.56,7.26-.43,2.44-2.08,4.89-4.17,7.17-6.38.73-.84,1.35-1.77,1.83-2.77v.02ZM115.91,160.06c.18-1.99-1-3.86-2.87-4.56-1.89-.77-4.05-.4-5.56.97-2.73,2.32-5.42,4.68-8.01,7.11-1.64,1.4-1.83,3.87-.43,5.51.18.21.37.39.59.56,2.07,1.64,5.02,1.56,7-.2,2.56-2.15,5.11-4.32,7.49-6.6.73-.84,1.34-1.78,1.8-2.79v.02ZM171.29,85.72c6.38,10.32,11.76,20.71,18.98,30.44,3.5-2.2,6.78-4.21,9.95-6.33.44-.49.57-1.19.34-1.81-1.39-3.01-3.05-5.93-4.38-8.96-2.42-5.55-4.7-11.14-6.96-16.74-.48-1.2-1.16-1.41-2.46-.96-1.44.5-2.95.87-4.43,1.28-3.57.99-7.14,1.98-11.04,3.06h0ZM85.57,86.69c-.89-.28-1.47-.5-2.08-.64-4.02-.93-8.05-1.78-12.05-2.78-1.05-.44-2.26,0-2.78,1.02-3.71,5.38-7.47,10.75-11.33,16.05-2.52,3.45-5.24,6.79-8.04,10.38,3.31,2.2,6.59,4.29,9.73,6.52,1.47,1.04,2.21.77,3.19-.48,6.12-7.79,12.32-15.51,18.45-23.28,1.67-2.11,3.15-4.33,4.92-6.8h0ZM175.98,134.51c.46-.32.66-.39.74-.53,2.74-4.32,5.5-8.63,8.16-12.98.25-.6.19-1.28-.16-1.82-6.92-10.38-13.89-20.73-20.91-31.06-.69-.82-1.66-1.35-2.72-1.48-7.23-.73-14.46-1.34-21.71-1.89-1.48-.13-2.97-.04-4.43.27-7.76,1.85-15.49,3.79-23.21,5.75-.77.18-1.45.63-1.93,1.25-3.9,6.38-7.74,12.79-11.53,19.23-1.03,1.65-.52,3.82,1.13,4.85.11.07.23.14.36.19,1.96,1.07,4.37.82,6.07-.62.83-.83,1.56-1.76,2.17-2.76,2.73-4.19,5.42-8.41,8.12-12.62.89-1.49,2.56-2.33,4.28-2.16,5.58.32,11.14.7,16.72,1,2.14.08,4.17,1,5.64,2.56,8.1,8.09,16.29,16.12,24.44,24.17,2.9,2.85,5.79,5.7,8.77,8.63h0ZM103.72,88.48c-3.19-.2-6.07-.34-8.95-.58-1-.14-1.99.3-2.55,1.13-8.49,10.59-17.01,21.17-25.56,31.72-.81,1-.65,1.6.22,2.45,3.21,3.15,6.42,6.32,9.45,9.6.66,1.11,2.09,1.48,3.2.83.13-.08.26-.17.37-.27,7.39-4.26,15.44-.72,16.86,4.77.09.36,1,.82,1.5.8,7.06-.35,11.49,2.69,12.69,8.69.23.66.76,1.16,1.43,1.36,7.01,1.3,10.55,5.07,10.38,11.31-.03.9.16,1.37,1.26,1.73,7,2.23,9.91,7.56,7.71,13.78-.21.55-.14,1.17.18,1.66,1.28,1.3,3.14,1.83,4.91,1.42,1.8-.25,3.26-1.57,3.68-3.34.32-1.69-.35-3.41-1.74-4.42-2.28-2.07-4.55-4.16-6.81-6.24-1.89-1.75-2.01-3.57-.37-4.87,1.59-1.25,3.52-.99,5.42.76,2.41,2.2,4.74,4.45,7.21,6.6,1.89,1.65,4.67,1.78,6.71.31,1.79-1.2,2.26-3.62,1.06-5.4-.12-.18-.26-.35-.41-.51-.44-.49-.9-.96-1.4-1.4-4.24-3.94-8.48-7.88-12.73-11.82-1.9-1.77-2.02-3.58-.36-4.85,1.6-1.22,3.48-.93,5.42.87,1.59,1.48,3.15,2.98,4.75,4.45,2.97,2.75,5.89,5.53,8.93,8.21,1.89,1.65,4.66,1.78,6.7.33,1.73-1.26,2.11-3.68.85-5.41-.1-.13-.2-.26-.31-.38-.31-.36-.65-.7-1-1.03-5.75-5.41-11.49-10.82-17.24-16.23-1.14-1.08-2.32-2.12-3.39-3.25-1.13-.97-1.26-2.67-.3-3.8.14-.16.3-.3.47-.43,1.47-1.14,3.55-1.01,4.87.31.23.18.45.4.67.61,5.58,5.31,11.16,10.63,16.74,15.94,1.36,1.37,2.8,2.67,4.29,3.89,1.79,1.36,4.27,1.36,6.05-.01,1.66-1.12,2.09-3.38.97-5.03,0,0,0,0,0,0-.44-.63-.95-1.22-1.51-1.74-1.9-1.84-3.84-3.66-5.75-5.49-10.06-9.67-20.09-19.37-30.22-28.98-.98-.83-2.19-1.34-3.47-1.47-3.61-.37-7.26-.41-10.89-.71-1.36-.27-2.74.38-3.42,1.59-2.45,3.89-4.93,7.76-7.56,11.55-4.28,5.89-12.52,7.19-18.42,2.92-3.76-2.97-4.49-7.41-1.87-12.04,3.41-6.04,6.9-12.05,10.34-18.07.28-.51.51-1.01.92-1.82h0ZM135.85,185.07c-2.58.14-5.13-.61-7.23-2.12-1.64-1.27-2.55-.93-3.98.25-5.33,4.37-13.15,3.75-17.73-1.4-.83-1.1-1.48-2.32-1.92-3.63-.21-.9-1.08-1.49-2-1.36-6.26-.09-10.71-3.45-11.61-8.75-.18-1.08-.67-1.46-1.91-1.67-6.28-1.01-9.53-4.34-9.72-9.89-.04-.96-.41-1.36-1.47-1.61-8.1-1.94-11.08-9.08-6.2-14.94.76-.91.76-1.48-.08-2.32-4.04-4.02-7.96-8.13-12.07-12.09-1.45-1.23-3-2.33-4.64-3.31-3.91-2.68-7.87-5.32-11.76-8.02-2.35-1.63-2.63-3.27-.96-5.43,7.83-9.72,15.09-19.88,21.76-30.42,1.18-1.96,2.63-2.36,5.23-1.74,6.76,1.61,13.51,3.25,20.29,4.82,1.64.35,3.31.58,4.98.67,4.79.33,9.64.34,14.37.93,3.85.42,7.75.11,11.48-.91,4.62-1.14,9.28-2.17,13.94-3.2,1.07-.27,2.17-.38,3.27-.33,8.6.71,17.19,1.51,25.78,2.25.83.11,1.66.08,2.48-.09,7.43-2.02,14.85-4.06,22.25-6.18,3.61-1.04,5.01-.73,6.3,2.43,2.44,5.96,4.5,12.03,6.96,17.98,1.81,4.36,3.94,8.63,6.07,12.89,1.22,2.43,1.07,3.62-1.41,5.22-4.31,2.78-8.69,5.5-12.98,8.31-.95.61-1.77,1.4-2.41,2.33-3.07,4.8-6.07,9.64-8.96,14.52-.42.81-.45,1.76-.09,2.6,3.12,6.42-1.09,12.93-9.1,13.83-1.11.13-1.5.49-1.7,1.43-1.02,4.96-4.31,7.72-10.05,8.42-1.11.14-1.5.53-1.7,1.45-1.15,5.17-4.21,7.79-10.26,8.71-1.39.21-1.56.85-1.72,1.82-.85,4.91-5.78,8.55-11.51,8.57"/></g></svg>