<?xml version="1.0" encoding="UTF-8"?><svg id="Layer_1" xmlns="http://www.w3.org/2000/svg" xmlns:xlink="http://www.w3.org/1999/xlink" viewBox="0 0 250 250"><defs><style>.cls-1{clip-path:url(#clippath);}.cls-2{fill:none;}.cls-2,.cls-3,.cls-4{stroke-width:0px;}.cls-3{fill:#f3335c;}.cls-4{fill:#fff;}</style><clipPath id="clippath"><rect class="cls-2" x="2.38" y="2.39" width="245.23" height="245.23"/></clipPath></defs><g class="cls-1"><path class="cls-3" d="M125,247.61c67.72,0,122.61-54.9,122.61-122.61S192.72,2.39,125,2.39,2.39,57.28,2.39,125s54.9,122.61,122.61,122.61"/><path class="cls-4" d="M62.67,171.63l2.6-7.69h118.02l2.6,7.69H62.67ZM120.32,152.11h8.97v3.35h-8.97v-3.35ZM68.84,136.15c0-9.53,3.71-18.49,10.45-25.24,6.74-6.74,15.7-10.45,25.24-10.45h40.54c9.53,0,18.5,3.71,25.24,10.45,6.74,6.74,10.45,15.7,10.45,25.24v7.47h-111.92v-7.47ZM123.56,86.61h1.53c3.61,0,6.72,2.22,8.02,5.36h-17.57c1.31-3.15,4.41-5.36,8.02-5.36M190.35,158.34c-.58-1.72-2.2-2.88-4.02-2.88h-49.2v-3.35h47.87c2.34,0,4.24-1.9,4.24-4.24v-11.72c0-11.8-4.59-22.89-12.94-31.24-8.34-8.34-19.44-12.94-31.24-12.94h-3.14c-1.05-5.32-4.55-9.76-9.28-12.09v-1.28h.94c4.08,0,7.39-3.31,7.39-7.39v-1.56c0-4.08-3.31-7.39-7.39-7.39h-18.53c-4.08,0-7.39,3.31-7.39,7.39v1.56c0,4.08,3.31,7.39,7.39,7.39h.94v1.28c-4.73,2.33-8.24,6.77-9.28,12.09h-2.18c-11.8,0-22.89,4.59-31.24,12.94-8.34,8.34-12.94,19.44-12.94,31.24v11.72c0,2.34,1.9,4.24,4.24,4.24h47.87v3.35h-50.25c-1.82,0-3.44,1.16-4.02,2.88l-5.47,16.17c-.44,1.3-.22,2.72.57,3.83.8,1.11,2.08,1.77,3.45,1.77h135.04c1.37,0,2.65-.66,3.45-1.77.8-1.11,1.01-2.54.57-3.83l-5.47-16.17Z"/><path class="cls-4" d="M159.14,85.01h0c1.72,0,3.12-1.4,3.12-3.12v-18.41c0-1.72-1.4-3.12-3.12-3.12s-3.12,1.4-3.12,3.12v18.41c0,1.72,1.4,3.12,3.12,3.12"/><path class="cls-4" d="M176.74,91.27h0c1.41.99,3.36.64,4.35-.77l10.55-15.09c.99-1.41.64-3.36-.77-4.35-1.41-.99-3.36-.64-4.35.77l-10.55,15.09c-.99,1.41-.64,3.36.77,4.35"/><path class="cls-4" d="M209.18,94.8h0c-.69-1.58-2.53-2.3-4.11-1.61l-16.87,7.38c-1.58.69-2.3,2.53-1.61,4.11.69,1.58,2.53,2.3,4.11,1.61l16.87-7.38c1.58-.69,2.3-2.53,1.61-4.11"/></g></svg>